<?xml version="1.0"?>
<!-- Generated by SVGo and Plotinum VG -->
<svg width="576pt" height="144pt" viewBox="0 0 576 144"
	xmlns="http://www.w3.org/2000/svg"
	xmlns:xlink="http://www.w3.org/1999/xlink">
<g transform="scale(1, -1) translate(0, -144)">
<path d="M0,0L576,0L576,144L0,144Z" style="fill:#FFFFFF" />
<text x="229.69" y="-132.45" transform="scale(1, -1)"
	style="font-family:Times;font-weight:normal;font-style:normal;font-size:12px">Free space in git storage</text>
<text x="296.03" y="-3.8613" transform="scale(1, -1)"
	style="font-family:Times;font-weight:normal;font-style:normal;font-size:12px">Time</text>
<text x="60.589" y="-15.602" transform="scale(1, -1)"
	style="font-family:Times;font-weight:normal;font-style:normal;font-size:10px">12:20:00</text>
<text x="209.77" y="-15.602" transform="scale(1, -1)"
	style="font-family:Times;font-weight:normal;font-style:normal;font-size:10px">13:10:00</text>
<text x="358.96" y="-15.602" transform="scale(1, -1)"
	style="font-family:Times;font-weight:normal;font-style:normal;font-size:10px">14:00:00</text>
<text x="508.15" y="-15.602" transform="scale(1, -1)"
	style="font-family:Times;font-weight:normal;font-style:normal;font-size:10px">14:50:00</text>
<path d="M78.367,25.23L78.367,33.23" style="fill:none;stroke:#000000;stroke-width:0.5" />
<path d="M227.55,25.23L227.55,33.23" style="fill:none;stroke:#000000;stroke-width:0.5" />
<path d="M376.74,25.23L376.74,33.23" style="fill:none;stroke:#000000;stroke-width:0.5" />
<path d="M525.92,25.23L525.92,33.23" style="fill:none;stroke:#000000;stroke-width:0.5" />
<path d="M128.1,29.23L128.1,33.23" style="fill:none;stroke:#000000;stroke-width:0.5" />
<path d="M177.82,29.23L177.82,33.23" style="fill:none;stroke:#000000;stroke-width:0.5" />
<path d="M277.28,29.23L277.28,33.23" style="fill:none;stroke:#000000;stroke-width:0.5" />
<path d="M327.01,29.23L327.01,33.23" style="fill:none;stroke:#000000;stroke-width:0.5" />
<path d="M426.47,29.23L426.47,33.23" style="fill:none;stroke:#000000;stroke-width:0.5" />
<path d="M476.2,29.23L476.2,33.23" style="fill:none;stroke:#000000;stroke-width:0.5" />
<path d="M575.65,29.23L575.65,33.23" style="fill:none;stroke:#000000;stroke-width:0.5" />
<path d="M40.972,33.23L576,33.23" style="fill:none;stroke:#000000;stroke-width:0.5" />
<text x="0" y="-38.291" transform="scale(1, -1)"
	style="font-family:Times;font-weight:normal;font-style:normal;font-size:10px">542 G</text>
<text x="0" y="-64.615" transform="scale(1, -1)"
	style="font-family:Times;font-weight:normal;font-style:normal;font-size:10px">545 G</text>
<text x="0" y="-90.94" transform="scale(1, -1)"
	style="font-family:Times;font-weight:normal;font-style:normal;font-size:10px">548 G</text>
<text x="0" y="-117.27" transform="scale(1, -1)"
	style="font-family:Times;font-weight:normal;font-style:normal;font-size:10px">550 G</text>
<path d="M27.222,43.012L35.222,43.012" style="fill:none;stroke:#000000;stroke-width:0.5" />
<path d="M27.222,69.337L35.222,69.337" style="fill:none;stroke:#000000;stroke-width:0.5" />
<path d="M27.222,95.662L35.222,95.662" style="fill:none;stroke:#000000;stroke-width:0.5" />
<path d="M27.222,121.99L35.222,121.99" style="fill:none;stroke:#000000;stroke-width:0.5" />
<path d="M31.222,48.277L35.222,48.277" style="fill:none;stroke:#000000;stroke-width:0.5" />
<path d="M31.222,53.542L35.222,53.542" style="fill:none;stroke:#000000;stroke-width:0.5" />
<path d="M31.222,58.807L35.222,58.807" style="fill:none;stroke:#000000;stroke-width:0.5" />
<path d="M31.222,64.072L35.222,64.072" style="fill:none;stroke:#000000;stroke-width:0.5" />
<path d="M31.222,74.602L35.222,74.602" style="fill:none;stroke:#000000;stroke-width:0.5" />
<path d="M31.222,79.867L35.222,79.867" style="fill:none;stroke:#000000;stroke-width:0.5" />
<path d="M31.222,85.132L35.222,85.132" style="fill:none;stroke:#000000;stroke-width:0.5" />
<path d="M31.222,90.397L35.222,90.397" style="fill:none;stroke:#000000;stroke-width:0.5" />
<path d="M31.222,100.93L35.222,100.93" style="fill:none;stroke:#000000;stroke-width:0.5" />
<path d="M31.222,106.19L35.222,106.19" style="fill:none;stroke:#000000;stroke-width:0.5" />
<path d="M31.222,111.46L35.222,111.46" style="fill:none;stroke:#000000;stroke-width:0.5" />
<path d="M31.222,116.72L35.222,116.72" style="fill:none;stroke:#000000;stroke-width:0.5" />
<path d="M31.222,127.25L35.222,127.25" style="fill:none;stroke:#000000;stroke-width:0.5" />
<path d="M35.222,38.48L35.222,128.58" style="fill:none;stroke:#000000;stroke-width:0.5" />
<path d="M40.972,121.25L43.607,121.24L46.243,121.24L48.879,121.24L51.514,121.24L54.15,121.23L56.785,121.23L59.421,121.23L62.057,121.22L64.692,128.58L67.328,128.56L69.963,128.54L72.599,121.27L75.235,121.26L77.87,121.25L80.506,120.47L83.141,120.47L85.777,120.43L88.413,120.41L91.048,120.41L93.684,120.4L96.319,120.39L98.955,120.39L101.59,120.37L104.23,120.37L106.86,120.36L109.5,127.7L112.13,127.68L114.77,127.67L117.4,120.39L120.04,120.38L122.68,120.36L125.31,120.34L127.95,120.33L130.58,120.33L133.22,120.33L135.85,120.33L138.49,120.32L141.12,117.41L143.76,117.41L146.4,91.737L149.03,90.911L151.67,90.901L154.3,98.292L156.94,98.23L159.57,98.221L162.21,98.217L164.85,90.927L167.48,90.915L170.12,90.908L172.75,90.905L175.39,90.902L178.02,90.9L180.66,90.889L183.29,90.887L185.93,90.882L188.57,90.879L191.2,90.873L193.84,90.871L196.47,90.849L199.11,96.92L201.74,96.892L204.38,96.876L207.01,96.868L209.65,96.858L212.29,89.553L214.92,89.547L217.56,89.537L220.19,89.55L222.83,89.543L225.46,89.495L228.1,89.546L230.74,89.54L233.37,89.377L236.01,88.573L238.64,87.822L241.28,86.94L243.91,93.91L246.55,93.296L249.18,93.196L251.82,92.842L254.46,92.523L257.09,84.301L259.73,82.283L262.36,81.32L265,80.475L267.63,80.275L270.27,79.947L272.91,79.711L275.54,79.475L278.18,79.248L280.81,79.203L283.45,79.105L286.08,78.891L288.72,85.917L291.35,85.199L293.99,84.802L296.63,84.156L299.26,84.091L301.9,83.967L304.53,76.426L307.17,76.19L309.8,75.487L312.44,75.159L315.07,75.088L317.71,75.044L320.35,73.404L322.98,73.011L325.62,71.874L328.25,71.02L330.89,70.095L333.52,77.388L336.16,70.087L338.8,70.078L341.43,70.074L344.07,70.062L346.7,70.049L349.34,66.389L351.97,70.03L354.61,70.026L357.24,70.019L359.88,70.018L362.52,70.019L365.15,63.504L367.79,70.022L370.42,70.019L373.06,70.013L375.69,70.006L378.33,76.401L380.97,69.268L383.6,52.779L386.24,49.882L388.87,49.855L391.51,49.837L394.14,49.824L396.78,49.803L399.41,49.795L402.05,49.791L404.69,49.788L407.32,49.787L409.96,49.784L412.59,49.784L415.23,49.781L417.86,49.777L420.5,49.774L423.13,57.786L425.77,57.764L428.41,50.456L431.04,50.448L433.68,50.447L436.31,50.436L438.95,45.744L441.58,45.742L444.22,45.736L446.86,45.733L449.49,45.726L452.13,45.722L454.76,45.717L457.4,45.711L460.03,45.702L462.67,45.693L465.3,45.692L467.94,53.055L470.58,53.036L473.21,51.059L475.85,45.714L478.48,45.7L481.12,45.688L483.75,45.677L486.39,45.668L489.02,39.948L491.66,45.653L494.3,45.649L496.93,44.722L499.57,44.717L502.2,44.713L504.84,38.48L507.47,44.711L510.11,44.709L512.75,52.083L515.38,52.061L518.02,52.061L520.65,44.775L523.29,44.767L525.92,44.76L528.56,44.749L531.19,44.749L533.83,44.741L536.47,44.727L539.1,44.724L541.74,44.717L544.37,44.713L547.01,44.709L549.64,44.711L552.28,44.705L554.92,44.7L557.55,53.835L560.19,53.835L562.82,53.827L565.46,53.82L568.09,46.521L570.73,46.513L573.36,46.509L576,46.502" style="fill:none;stroke:#F15A60" />
<path d="M556,122.7L576,122.7" style="fill:none;stroke:#F15A60" />
<text x="502.03" y="-117.03" transform="scale(1, -1)"
	style="font-family:Times;font-weight:normal;font-style:normal;font-size:12px">Free space</text>
</g>
</svg>
