<?xml version="1.0"?>
<!-- Generated by SVGo and Plotinum VG -->
<svg width="576pt" height="144pt" viewBox="0 0 576 144"
	xmlns="http://www.w3.org/2000/svg"
	xmlns:xlink="http://www.w3.org/1999/xlink">
<g transform="scale(1, -1) translate(0, -144)">
<path d="M0,0L576,0L576,144L0,144Z" style="fill:#FFFFFF" />
<text x="229.69" y="-132.45" transform="scale(1, -1)"
	style="font-family:Times;font-weight:normal;font-style:normal;font-size:12px">Free space in git storage</text>
<text x="293.58" y="-3.8613" transform="scale(1, -1)"
	style="font-family:Times;font-weight:normal;font-style:normal;font-size:12px">Time</text>
<text x="25.152" y="-15.602" transform="scale(1, -1)"
	style="font-family:Times;font-weight:normal;font-style:normal;font-size:10px">Oct 3 17:20:00</text>
<text x="270.58" y="-15.602" transform="scale(1, -1)"
	style="font-family:Times;font-weight:normal;font-style:normal;font-size:10px">Oct 5 13:46:40</text>
<text x="516" y="-15.602" transform="scale(1, -1)"
	style="font-family:Times;font-weight:normal;font-style:normal;font-size:10px">Oct 7 10:13:20</text>
<path d="M55.15,25.23L55.15,33.23" style="fill:none;stroke:#000000;stroke-width:0.5" />
<path d="M300.58,25.23L300.58,33.23" style="fill:none;stroke:#000000;stroke-width:0.5" />
<path d="M546,25.23L546,33.23" style="fill:none;stroke:#000000;stroke-width:0.5" />
<path d="M177.86,29.23L177.86,33.23" style="fill:none;stroke:#000000;stroke-width:0.5" />
<path d="M423.29,29.23L423.29,33.23" style="fill:none;stroke:#000000;stroke-width:0.5" />
<path d="M40.972,33.23L571.09,33.23" style="fill:none;stroke:#000000;stroke-width:0.5" />
<text x="5" y="-37.25" transform="scale(1, -1)"
	style="font-family:Times;font-weight:normal;font-style:normal;font-size:10px">25 G</text>
<text x="5" y="-62.605" transform="scale(1, -1)"
	style="font-family:Times;font-weight:normal;font-style:normal;font-size:10px">50 G</text>
<text x="5" y="-87.961" transform="scale(1, -1)"
	style="font-family:Times;font-weight:normal;font-style:normal;font-size:10px">75 G</text>
<text x="0" y="-113.32" transform="scale(1, -1)"
	style="font-family:Times;font-weight:normal;font-style:normal;font-size:10px">100 G</text>
<path d="M27.222,41.971L35.222,41.971" style="fill:none;stroke:#000000;stroke-width:0.5" />
<path d="M27.222,67.327L35.222,67.327" style="fill:none;stroke:#000000;stroke-width:0.5" />
<path d="M27.222,92.683L35.222,92.683" style="fill:none;stroke:#000000;stroke-width:0.5" />
<path d="M27.222,118.04L35.222,118.04" style="fill:none;stroke:#000000;stroke-width:0.5" />
<path d="M31.222,47.042L35.222,47.042" style="fill:none;stroke:#000000;stroke-width:0.5" />
<path d="M31.222,52.114L35.222,52.114" style="fill:none;stroke:#000000;stroke-width:0.5" />
<path d="M31.222,57.185L35.222,57.185" style="fill:none;stroke:#000000;stroke-width:0.5" />
<path d="M31.222,62.256L35.222,62.256" style="fill:none;stroke:#000000;stroke-width:0.5" />
<path d="M31.222,72.398L35.222,72.398" style="fill:none;stroke:#000000;stroke-width:0.5" />
<path d="M31.222,77.469L35.222,77.469" style="fill:none;stroke:#000000;stroke-width:0.5" />
<path d="M31.222,82.54L35.222,82.54" style="fill:none;stroke:#000000;stroke-width:0.5" />
<path d="M31.222,87.612L35.222,87.612" style="fill:none;stroke:#000000;stroke-width:0.5" />
<path d="M31.222,97.754L35.222,97.754" style="fill:none;stroke:#000000;stroke-width:0.5" />
<path d="M31.222,102.83L35.222,102.83" style="fill:none;stroke:#000000;stroke-width:0.5" />
<path d="M31.222,107.9L35.222,107.9" style="fill:none;stroke:#000000;stroke-width:0.5" />
<path d="M31.222,112.97L35.222,112.97" style="fill:none;stroke:#000000;stroke-width:0.5" />
<path d="M31.222,123.11L35.222,123.11" style="fill:none;stroke:#000000;stroke-width:0.5" />
<path d="M31.222,128.18L35.222,128.18" style="fill:none;stroke:#000000;stroke-width:0.5" />
<path d="M35.222,38.48L35.222,128.58" style="fill:none;stroke:#000000;stroke-width:0.5" />
<path d="M40.972,128.58L43.622,126.88L46.273,125.61L48.923,125.43L51.574,123.29L54.225,123.15L56.875,122.87L59.526,119.59L62.177,119.2L64.827,118.94L67.478,118.81L70.128,118.6L72.779,119.14L75.43,118.94L78.08,118.28L80.731,118.11L83.381,124.25L86.032,123.99L88.683,123.21L91.333,123.15L93.984,122.7L96.634,122.57L99.285,120.72L101.94,119.82L104.59,120.14L107.24,119.04L109.89,118.98L112.54,118.51L115.19,118.34L117.84,114.46L120.49,113.32L123.14,113.22L125.79,112.74L128.44,111.04L131.09,110.84L133.74,111.4L136.39,110.16L139.04,109.81L141.69,110.13L144.35,109.47L147,109.15L149.65,108.57L152.3,108.51L154.95,108.24L157.6,108.28L160.25,108.13L162.9,107.77L165.55,107.52L168.2,107.29L170.85,107.64L173.5,106.9L176.15,106.47L178.8,104.64L181.45,104.49L184.1,103.99L186.75,103.64L189.41,103.45L192.06,102.94L194.71,102.73L197.36,102.33L200.01,100.65L202.66,99.771L205.31,99.995L207.96,99.144L210.61,96.379L213.26,95.088L215.91,109.2L218.56,107.89L221.21,107.45L223.86,107.39L226.51,106.69L229.16,106.59L231.82,106.39L234.47,106.09L237.12,105.72L239.77,106.04L242.42,105.35L245.07,104.94L247.72,102.85L250.37,102.6L253.02,102.36L255.67,101.8L258.32,101.19L260.97,101.46L263.62,100.71L266.27,101.24L268.92,97.669L271.57,97.973L274.22,95.355L276.88,93.764L279.53,94.059L282.18,93.814L284.83,93.32L287.48,92.082L290.13,92.266L292.78,90.656L295.43,90.457L298.08,90.555L300.73,90.905L303.38,90.161L306.03,90.509L308.68,91.39L311.33,91.209L313.98,90.878L316.63,90.321L319.29,90.202L321.94,90L324.59,89.269L327.24,89.149L329.89,88.572L332.54,88.895L335.19,88.379L337.84,87.391L340.49,87.764L343.14,85.121L345.79,82.252L348.44,82.435L351.09,82.075L353.74,81.146L356.39,80.894L359.04,80.094L361.69,79.011L364.35,78.897L367,78.417L369.65,79.043L372.3,78.719L374.95,77.971L377.6,77.75L380.25,77.392L382.9,76.343L385.55,76.016L388.2,75.728L390.85,73.908L393.5,74.519L396.15,74.642L398.8,75.267L401.45,73.616L404.1,74.152L406.76,71.892L409.41,70.283L412.06,70.227L414.71,67.077L417.36,65.184L420.01,62.135L422.66,61.667L425.31,61.297L427.96,61.081L430.61,61.383L433.26,61.006L435.91,61.357L438.56,60.994L441.21,59.861L443.86,59.609L446.51,59.721L449.16,59.286L451.82,59.064L454.47,58.599L457.12,58.963L459.77,58.942L462.42,58.937L465.07,57.478L467.72,58.118L470.37,57.283L473.02,57.533L475.67,56.74L478.32,55.679L480.97,57.559L483.62,57.981L486.27,58.028L488.92,57.535L491.57,57.469L494.23,56.919L496.88,57.253L499.53,57.379L502.18,56.606L504.83,56.013L507.48,54.483L510.13,54.252L512.78,51.402L515.43,50.304L518.08,49.991L520.73,49.808L523.38,49.068L526.03,46.922L528.68,46.724L531.33,47.222L533.98,45.86L536.63,46.345L539.29,45.833L541.94,44.09L544.59,43.673L547.24,41.309L549.89,41.914L552.54,41.21L555.19,40.285L557.84,40.881L560.49,40.782L563.14,38.844L565.79,38.48L568.44,38.645L571.09,38.585" style="fill:none;stroke:#F15A60" />
<path d="M556,122.7L576,122.7" style="fill:none;stroke:#F15A60" />
<text x="502.03" y="-117.03" transform="scale(1, -1)"
	style="font-family:Times;font-weight:normal;font-style:normal;font-size:12px">Free space</text>
</g>
</svg>
