<?xml version="1.0"?>
<!-- Generated by SVGo and Plotinum VG -->
<svg width="576pt" height="144pt" viewBox="0 0 576 144"
	xmlns="http://www.w3.org/2000/svg"
	xmlns:xlink="http://www.w3.org/1999/xlink">
<g transform="scale(1, -1) translate(0, -144)">
<path d="M0,0L576,0L576,144L0,144Z" style="fill:#FFFFFF" />
<text x="229.69" y="-132.45" transform="scale(1, -1)"
	style="font-family:Times;font-weight:normal;font-style:normal;font-size:12px">Free space in git storage</text>
<text x="296.03" y="-3.8613" transform="scale(1, -1)"
	style="font-family:Times;font-weight:normal;font-style:normal;font-size:12px">Time</text>
<text x="35.905" y="-15.602" transform="scale(1, -1)"
	style="font-family:Times;font-weight:normal;font-style:normal;font-size:10px">09:08:20</text>
<text x="284.86" y="-15.602" transform="scale(1, -1)"
	style="font-family:Times;font-weight:normal;font-style:normal;font-size:10px">11:55:00</text>
<text x="533.44" y="-15.602" transform="scale(1, -1)"
	style="font-family:Times;font-weight:normal;font-style:normal;font-size:10px">14:41:40</text>
<path d="M53.684,25.23L53.684,33.23" style="fill:none;stroke:#000000;stroke-width:0.5" />
<path d="M302.45,25.23L302.45,33.23" style="fill:none;stroke:#000000;stroke-width:0.5" />
<path d="M551.22,25.23L551.22,33.23" style="fill:none;stroke:#000000;stroke-width:0.5" />
<path d="M178.07,29.23L178.07,33.23" style="fill:none;stroke:#000000;stroke-width:0.5" />
<path d="M426.84,29.23L426.84,33.23" style="fill:none;stroke:#000000;stroke-width:0.5" />
<path d="M40.972,33.23L576,33.23" style="fill:none;stroke:#000000;stroke-width:0.5" />
<text x="0" y="-49.791" transform="scale(1, -1)"
	style="font-family:Times;font-weight:normal;font-style:normal;font-size:10px">100 G</text>
<text x="0" y="-82.666" transform="scale(1, -1)"
	style="font-family:Times;font-weight:normal;font-style:normal;font-size:10px">300 G</text>
<text x="0" y="-115.54" transform="scale(1, -1)"
	style="font-family:Times;font-weight:normal;font-style:normal;font-size:10px">500 G</text>
<path d="M27.222,54.513L35.222,54.513" style="fill:none;stroke:#000000;stroke-width:0.5" />
<path d="M27.222,87.388L35.222,87.388" style="fill:none;stroke:#000000;stroke-width:0.5" />
<path d="M27.222,120.26L35.222,120.26" style="fill:none;stroke:#000000;stroke-width:0.5" />
<path d="M31.222,70.95L35.222,70.95" style="fill:none;stroke:#000000;stroke-width:0.5" />
<path d="M31.222,103.83L35.222,103.83" style="fill:none;stroke:#000000;stroke-width:0.5" />
<path d="M35.222,38.48L35.222,128.58" style="fill:none;stroke:#000000;stroke-width:0.5" />
<path d="M40.972,39.054L43.634,39.062L46.295,39.062L48.957,39.062L51.619,39.061L54.281,39.061L56.943,39.061L59.605,39.061L62.266,39.061L64.928,39.175L67.59,39.087L70.252,39.062L72.914,39.043L75.576,39.016L78.237,39.042L80.899,39.041L83.561,39.01L86.223,39.156L88.885,39.155L91.546,39.155L94.208,39.042L96.87,39.042L99.532,39.041L102.19,39.04L104.86,38.975L107.52,38.975L110.18,38.976L112.84,38.975L115.5,38.975L118.16,38.918L120.83,38.918L123.49,38.918L126.15,38.917L128.81,38.917L131.47,39.007L134.14,38.895L136.8,38.894L139.46,38.894L142.12,38.892L144.78,38.892L147.44,38.892L150.11,38.893L152.77,38.893L155.43,39.005L158.09,38.892L160.75,38.892L163.42,38.83L166.08,38.796L168.74,38.796L171.4,38.796L174.06,38.683L176.73,38.91L179.39,38.909L182.05,38.811L184.71,38.795L187.37,38.795L190.03,38.748L192.7,38.794L195.36,38.785L198.02,38.91L200.68,38.842L203.34,38.842L206.01,38.842L208.67,38.796L211.33,38.796L213.99,38.773L216.65,38.772L219.31,38.772L221.98,38.802L224.64,38.688L227.3,38.688L229.96,38.687L232.62,38.687L235.29,38.687L237.95,38.687L240.61,38.687L243.27,38.801L245.93,38.801L248.59,38.687L251.26,38.687L253.92,38.673L256.58,38.522L259.24,38.583L261.9,38.583L264.57,38.48L267.23,38.698L269.89,38.698L272.55,38.656L275.21,38.583L277.87,38.583L280.54,38.54L283.2,38.553L285.86,38.552L288.52,38.714L291.18,38.599L293.85,128.51L296.51,128.51L299.17,128.51L301.83,128.51L304.49,128.51L307.15,128.51L309.82,128.51L312.48,128.58L315.14,128.47L317.8,128.47L320.46,128.47L323.13,128.47L325.79,128.47L328.45,128.47L331.11,128.47L333.77,128.58L336.44,128.47L339.1,128.47L341.76,128.46L344.42,128.46L347.08,128.46L349.74,128.46L352.41,128.46L355.07,128.57L357.73,128.57L360.39,128.46L363.05,128.46L365.72,128.46L368.38,128.46L371.04,128.41L373.7,128.04L376.36,128L379.02,128.11L381.69,128.11L384.35,128L387.01,128L389.67,128L392.33,128L395,128L397.66,127.95L400.32,128.09L402.98,128.09L405.64,127.99L408.3,127.97L410.97,127.97L413.63,127.97L416.29,127.97L418.95,127.95L421.61,127.93L424.28,128.03L426.94,128.03L429.6,127.89L432.26,127.84L434.92,127.83L437.58,127.82L440.25,127.81L442.91,127.81L445.57,127.91L448.23,127.9L450.89,127.89L453.56,127.77L456.22,127.75L458.88,127.75L461.54,127.72L464.2,127.69L466.86,127.79L469.53,127.67L472.19,127.67L474.85,127.67L477.51,127.67L480.17,127.67L482.84,127.67L485.5,127.67L488.16,127.67L490.82,127.77L493.48,127.36L496.15,127.36L498.81,127.35L501.47,127.35L504.13,127.35L506.79,127.35L509.45,127.35L512.12,127.48L514.78,127.36L517.44,127.36L520.1,127.29L522.76,127.29L525.43,127.29L528.09,127.29L530.75,127.29L533.41,127.29L536.07,127.4L538.73,127.29L541.4,127.29L544.06,127.29L546.72,127.29L549.38,127.28L552.04,127.28L554.71,127.27L557.37,127.39L560.03,127.39L562.69,127.28L565.35,127.28L568.01,127.28L570.68,127.28L573.34,127.27L576,127.27" style="fill:none;stroke:#F15A60" />
<path d="M556,122.7L576,122.7" style="fill:none;stroke:#F15A60" />
<text x="502.03" y="-117.03" transform="scale(1, -1)"
	style="font-family:Times;font-weight:normal;font-style:normal;font-size:12px">Free space</text>
</g>
</svg>
